<svg width="84" height="83" viewBox="0 0 84 83" fill="none" xmlns="http://www.w3.org/2000/svg">
<rect width="84" height="83" rx="41.5" fill="#0AA95F"/>
<path d="M23.9906 38.3105H31.1631V44.6895H23.9906V38.3105Z" fill="white"/>
<path d="M40.909 52C40.909 52.5523 41.3567 53 41.909 53H47.0816C47.6338 53 48.0816 52.5523 48.0816 52V38.3105H40.909V52Z" fill="white"/>
<path d="M57.7727 56C57.7727 56.5523 58.2204 57 58.7727 57H64C64.5523 57 65 56.5523 65 56V38.3105H57.7727V56Z" fill="white"/>
<path d="M31.1631 44.6895C31.1631 46.5778 30.7381 48.4408 29.9209 50.1343C29.1037 51.8279 27.9163 53.3066 26.4504 54.4561C24.9846 55.6056 23.2797 56.3951 21.4676 56.7635C19.9792 57.066 18.4512 57.0779 16.9639 56.8016C16.4251 56.7016 16.1119 56.1538 16.2509 55.6237L17.6062 50.4542C17.7474 49.9158 18.3029 49.6077 18.8586 49.6381C19.261 49.6601 19.6658 49.6308 20.0636 49.5499C20.7931 49.4016 21.4794 49.0838 22.0695 48.6211C22.6595 48.1583 23.1375 47.5631 23.4665 46.8813C23.7955 46.1996 23.9666 45.4497 23.9666 44.6895H31.1631Z" fill="white"/>
<path d="M48.0816 38.3105C48.0816 36.6938 47.77 35.093 47.1646 33.5995C46.5593 32.1059 45.672 30.7488 44.5535 29.6057C43.435 28.4625 42.1071 27.5557 40.6457 26.9371C39.1842 26.3184 37.6179 26 36.0361 26C34.4542 26 32.8879 26.3184 31.4264 26.9371C29.965 27.5557 28.6371 28.4625 27.5186 29.6057C26.4001 30.7488 25.5128 32.1059 24.9075 33.5995C24.3021 35.093 23.9906 36.6938 23.9906 38.3105L31.1871 38.3105C31.1871 37.6597 31.3125 37.0153 31.5562 36.414C31.7999 35.8128 32.1571 35.2665 32.6073 34.8063C33.0576 34.3462 33.5921 33.9811 34.1804 33.7321C34.7687 33.483 35.3993 33.3549 36.0361 33.3549C36.6728 33.3549 37.3034 33.483 37.8917 33.7321C38.48 33.9811 39.0145 34.3462 39.4648 34.8063C39.915 35.2665 40.2722 35.8128 40.5159 36.414C40.7596 37.0153 40.885 37.6597 40.885 38.3105H48.0816Z" fill="white"/>
<path d="M65 38.3105C65 36.6938 64.6884 35.093 64.0831 33.5995C63.4778 32.1059 62.5905 30.7488 61.472 29.6057C60.3534 28.4625 59.0255 27.5557 57.5641 26.9371C56.1027 26.3184 54.5363 26 52.9545 26C51.3727 26 49.8063 26.3184 48.3449 26.9371C46.8835 27.5557 45.5556 28.4625 44.437 29.6057C43.3185 30.7488 42.4313 32.1059 41.8259 33.5995C41.2206 35.093 40.909 36.6938 40.909 38.3105L48.1056 38.3105C48.1056 37.6597 48.231 37.0153 48.4747 36.414C48.7183 35.8128 49.0755 35.2665 49.5258 34.8063C49.976 34.3462 50.5106 33.9811 51.0989 33.7321C51.6872 33.483 52.3177 33.3549 52.9545 33.3549C53.5913 33.3549 54.2218 33.483 54.8101 33.7321C55.3984 33.9811 55.933 34.3462 56.3832 34.8063C56.8335 35.2665 57.1907 35.8128 57.4343 36.414C57.678 37.0153 57.8035 37.6597 57.8035 38.3105H65Z" fill="white"/>
</svg>
